{
	"asset":{
		"generator":"Khronos glTF Blender I/O v5.1.18",
		"version":"2.0"
	},
	"scene":0,
	"scenes":[
		{
			"extras":{
				"GodotPipelineProps":{
					"mesh_data":0,
					"global_UI":1,
					"collision_UI":1,
					"object_name":"",
					"col_types":3,
					"export_UI":1,
					"save_path":"/project/test/fixtures/primitives/primitives.gltf",
					"counter":5,
					"discard_mesh":0,
					"body_types":4,
					"path_UI":1,
					"string_setter_UI":1,
					"string_setter_string":""
				}
			},
			"name":"Scene",
			"nodes":[
				0,
				1,
				2,
				3
			]
		}
	],
	"nodes":[
		{
			"extras":{
				"collision":"box",
				"center_x":-1.1920928955078125e-07,
				"center_z":0.0,
				"center_y":0.0,
				"size_x":"4.0",
				"size_z":"2.0",
				"size_y":"0.4"
			},
			"mesh":0,
			"name":"BoxWall",
			"translation":[
				-3.3287951946258545,
				0,
				0
			]
		},
		{
			"extras":{
				"center_x":1.6391277313232422e-07,
				"center_z":1.1920928955078125e-07,
				"center_y":0.0,
				"collision":"sphere-r",
				"radius":"0.5"
			},
			"mesh":1,
			"name":"SphereProp",
			"translation":[
				0,
				0,
				2.5372321605682373
			]
		},
		{
			"extras":{
				"collision":"cylinder",
				"center_x":0.0,
				"center_z":0.0,
				"center_y":0.0,
				"height":"1.5",
				"radius":"0.3"
			},
			"mesh":2,
			"name":"CylinderCol",
			"translation":[
				0,
				0,
				-2.0147907733917236
			]
		},
		{
			"extras":{
				"center_x":1.4901161193847656e-08,
				"center_z":0.0,
				"center_y":-0.12499997019767761,
				"collision":"capsule-h",
				"height":"1.75",
				"radius":"0.3"
			},
			"mesh":3,
			"name":"CapsuleNPC",
			"rotation":[
				0,
				0,
				-1,
				7.549790126404332e-08
			]
		}
	],
	"meshes":[
		{
			"name":"Cube.002",
			"primitives":[
				{
					"attributes":{
						"POSITION":0,
						"NORMAL":1,
						"TEXCOORD_0":2
					},
					"indices":3
				}
			]
		},
		{
			"name":"Sphere",
			"primitives":[
				{
					"attributes":{
						"POSITION":4,
						"NORMAL":5,
						"TEXCOORD_0":6
					},
					"indices":7
				}
			]
		},
		{
			"name":"Cylinder.001",
			"primitives":[
				{
					"attributes":{
						"POSITION":8,
						"NORMAL":9,
						"TEXCOORD_0":10
					},
					"indices":11
				}
			]
		},
		{
			"name":"Cylinder.002",
			"primitives":[
				{
					"attributes":{
						"POSITION":12,
						"NORMAL":13,
						"TEXCOORD_0":14
					},
					"indices":15
				}
			]
		}
	],
	"accessors":[
		{
			"bufferView":0,
			"componentType":5126,
			"count":24,
			"max":[
				2,
				0.20000000298023224,
				1
			],
			"min":[
				-2,
				-0.20000000298023224,
				-1
			],
			"type":"VEC3"
		},
		{
			"bufferView":1,
			"componentType":5126,
			"count":24,
			"type":"VEC3"
		},
		{
			"bufferView":2,
			"componentType":5126,
			"count":24,
			"type":"VEC2"
		},
		{
			"bufferView":3,
			"componentType":5123,
			"count":36,
			"type":"SCALAR"
		},
		{
			"bufferView":4,
			"componentType":5126,
			"count":1984,
			"max":[
				0.49999985098838806,
				0.5,
				0.49999967217445374
			],
			"min":[
				-0.4999995231628418,
				-0.5,
				-0.5
			],
			"type":"VEC3"
		},
		{
			"bufferView":5,
			"componentType":5126,
			"count":1984,
			"type":"VEC3"
		},
		{
			"bufferView":6,
			"componentType":5126,
			"count":1984,
			"type":"VEC2"
		},
		{
			"bufferView":7,
			"componentType":5123,
			"count":2880,
			"type":"SCALAR"
		},
		{
			"bufferView":8,
			"componentType":5126,
			"count":192,
			"max":[
				0.30000001192092896,
				0.75,
				0.30000001192092896
			],
			"min":[
				-0.30000001192092896,
				-0.75,
				-0.30000001192092896
			],
			"type":"VEC3"
		},
		{
			"bufferView":9,
			"componentType":5126,
			"count":192,
			"type":"VEC3"
		},
		{
			"bufferView":10,
			"componentType":5126,
			"count":192,
			"type":"VEC2"
		},
		{
			"bufferView":11,
			"componentType":5123,
			"count":372,
			"type":"SCALAR"
		},
		{
			"bufferView":12,
			"componentType":5126,
			"count":200,
			"max":[
				0.30000001192092896,
				1,
				0.30000001192092896
			],
			"min":[
				-0.30000001192092896,
				-0.75,
				-0.30000001192092896
			],
			"type":"VEC3"
		},
		{
			"bufferView":13,
			"componentType":5126,
			"count":200,
			"type":"VEC3"
		},
		{
			"bufferView":14,
			"componentType":5126,
			"count":200,
			"type":"VEC2"
		},
		{
			"bufferView":15,
			"componentType":5123,
			"count":378,
			"type":"SCALAR"
		}
	],
	"bufferViews":[
		{
			"buffer":0,
			"byteLength":288,
			"byteOffset":0,
			"target":34962
		},
		{
			"buffer":0,
			"byteLength":288,
			"byteOffset":288,
			"target":34962
		},
		{
			"buffer":0,
			"byteLength":192,
			"byteOffset":576,
			"target":34962
		},
		{
			"buffer":0,
			"byteLength":72,
			"byteOffset":768,
			"target":34963
		},
		{
			"buffer":0,
			"byteLength":23808,
			"byteOffset":840,
			"target":34962
		},
		{
			"buffer":0,
			"byteLength":23808,
			"byteOffset":24648,
			"target":34962
		},
		{
			"buffer":0,
			"byteLength":15872,
			"byteOffset":48456,
			"target":34962
		},
		{
			"buffer":0,
			"byteLength":5760,
			"byteOffset":64328,
			"target":34963
		},
		{
			"buffer":0,
			"byteLength":2304,
			"byteOffset":70088,
			"target":34962
		},
		{
			"buffer":0,
			"byteLength":2304,
			"byteOffset":72392,
			"target":34962
		},
		{
			"buffer":0,
			"byteLength":1536,
			"byteOffset":74696,
			"target":34962
		},
		{
			"buffer":0,
			"byteLength":744,
			"byteOffset":76232,
			"target":34963
		},
		{
			"buffer":0,
			"byteLength":2400,
			"byteOffset":76976,
			"target":34962
		},
		{
			"buffer":0,
			"byteLength":2400,
			"byteOffset":79376,
			"target":34962
		},
		{
			"buffer":0,
			"byteLength":1600,
			"byteOffset":81776,
			"target":34962
		},
		{
			"buffer":0,
			"byteLength":756,
			"byteOffset":83376,
			"target":34963
		}
	],
	"buffers":[
		{
			"byteLength":84132,
			"uri":"primitives.bin"
		}
	]
}
