{
	"asset":{
		"generator":"Khronos glTF Blender I/O v5.1.18",
		"version":"2.0"
	},
	"scene":0,
	"scenes":[
		{
			"extras":{
				"GodotPipelineProps":{
					"mesh_data":0,
					"export_UI":1,
					"string_setter_UI":1,
					"path_UI":1,
					"collision_UI":1,
					"export_textures":1,
					"discard_mesh":0,
					"col_types":0,
					"body_types":5,
					"global_UI":1,
					"counter":27,
					"save_path":"/project/test/fixtures/compound_collisions/compound_collisions.gltf",
					"display_wire":0,
					"preserve_origin":1,
					"apply_scale":1,
					"object_name":"",
					"use_object_suffix":0
				},
				"uv_atlas_bake_props":{}
			},
			"name":"Scene",
			"nodes":[
				0,
				1,
				2,
				3,
				6
			]
		}
	],
	"nodes":[
		{
			"mesh":0,
			"name":"Cube"
		},
		{
			"extras":{
				"center_x":2.0,
				"center_z":-6.0,
				"center_y":2.0,
				"collision":"box-d",
				"size_x":"16.0",
				"size_z":"4.0",
				"size_y":"4.0"
			},
			"mesh":1,
			"name":"Cube.Collision.001"
		},
		{
			"extras":{
				"center_x":2.0,
				"center_z":-6.0,
				"center_y":2.0,
				"collision":"box-d",
				"size_x":"16.0",
				"size_z":"4.0",
				"size_y":"4.0"
			},
			"mesh":2,
			"name":"Cube.Collision.002",
			"translation":[
				0,
				0,
				-12
			]
		},
		{
			"extras":{
				"center_x":-8.000000238418579,
				"center_z":-7.152557373046875e-07,
				"center_y":2.0,
				"collision":"box-d",
				"size_x":"4.0",
				"size_z":"16.0",
				"size_y":"4.0"
			},
			"mesh":3,
			"name":"Cube.Collision.003"
		},
		{
			"extras":{
				"collision":"box-c-d",
				"center_x":0.0,
				"center_z":0.0,
				"center_y":0.0,
				"size_x":"4.0",
				"size_z":"4.0",
				"size_y":"4.0"
			},
			"mesh":4,
			"name":"LShape.Col.001"
		},
		{
			"extras":{
				"center_x":5.0,
				"center_z":0.0,
				"center_y":3.0,
				"collision":"box-c",
				"size_x":"6.0",
				"size_z":"4.0",
				"size_y":"10.0"
			},
			"mesh":5,
			"name":"LShape.Col.002"
		},
		{
			"children":[
				4,
				5
			],
			"extras":{
				"collision":"bodyonly"
			},
			"mesh":6,
			"name":"LShape",
			"translation":[
				0,
				2,
				20.110172271728516
			]
		}
	],
	"materials":[
		{
			"doubleSided":true,
			"name":"Material.001",
			"pbrMetallicRoughness":{
				"baseColorFactor":[
					0,
					0,
					0.21400722861289978,
					1
				],
				"metallicFactor":0,
				"roughnessFactor":0.5
			}
		}
	],
	"meshes":[
		{
			"name":"Cube",
			"primitives":[
				{
					"attributes":{
						"POSITION":0,
						"NORMAL":1,
						"TEXCOORD_0":2
					},
					"indices":3,
					"material":0
				}
			]
		},
		{
			"name":"Cube.005",
			"primitives":[
				{
					"attributes":{
						"POSITION":4,
						"NORMAL":5,
						"TEXCOORD_0":6
					},
					"indices":7
				}
			]
		},
		{
			"name":"Cube.006",
			"primitives":[
				{
					"attributes":{
						"POSITION":8,
						"NORMAL":9,
						"TEXCOORD_0":10
					},
					"indices":7
				}
			]
		},
		{
			"name":"Cube.007",
			"primitives":[
				{
					"attributes":{
						"POSITION":11,
						"NORMAL":12,
						"TEXCOORD_0":13
					},
					"indices":14
				}
			]
		},
		{
			"name":"Cube.011",
			"primitives":[
				{
					"attributes":{
						"POSITION":15,
						"NORMAL":16,
						"TEXCOORD_0":17
					},
					"indices":18
				}
			]
		},
		{
			"name":"Cube.012",
			"primitives":[
				{
					"attributes":{
						"POSITION":19,
						"NORMAL":20,
						"TEXCOORD_0":21
					},
					"indices":22
				}
			]
		},
		{
			"name":"LShape",
			"primitives":[
				{
					"attributes":{
						"POSITION":23,
						"NORMAL":24,
						"TEXCOORD_0":25
					},
					"indices":26,
					"material":0
				}
			]
		}
	],
	"accessors":[
		{
			"bufferView":0,
			"componentType":5126,
			"count":48,
			"max":[
				10,
				4,
				8
			],
			"min":[
				-10,
				0,
				-8
			],
			"type":"VEC3"
		},
		{
			"bufferView":1,
			"componentType":5126,
			"count":48,
			"type":"VEC3"
		},
		{
			"bufferView":2,
			"componentType":5126,
			"count":48,
			"type":"VEC2"
		},
		{
			"bufferView":3,
			"componentType":5123,
			"count":84,
			"type":"SCALAR"
		},
		{
			"bufferView":4,
			"componentType":5126,
			"count":8,
			"max":[
				10,
				4,
				8
			],
			"min":[
				-6,
				0,
				4
			],
			"type":"VEC3"
		},
		{
			"bufferView":5,
			"componentType":5126,
			"count":8,
			"type":"VEC3"
		},
		{
			"bufferView":6,
			"componentType":5126,
			"count":8,
			"type":"VEC2"
		},
		{
			"bufferView":7,
			"componentType":5123,
			"count":12,
			"type":"SCALAR"
		},
		{
			"bufferView":8,
			"componentType":5126,
			"count":8,
			"max":[
				10,
				4,
				8
			],
			"min":[
				-6,
				0,
				4
			],
			"type":"VEC3"
		},
		{
			"bufferView":9,
			"componentType":5126,
			"count":8,
			"type":"VEC3"
		},
		{
			"bufferView":10,
			"componentType":5126,
			"count":8,
			"type":"VEC2"
		},
		{
			"bufferView":11,
			"componentType":5126,
			"count":14,
			"max":[
				-5.999999523162842,
				4,
				8.000000953674316
			],
			"min":[
				-10.000000953674316,
				0,
				-7.999999523162842
			],
			"type":"VEC3"
		},
		{
			"bufferView":12,
			"componentType":5126,
			"count":14,
			"type":"VEC3"
		},
		{
			"bufferView":13,
			"componentType":5126,
			"count":14,
			"type":"VEC2"
		},
		{
			"bufferView":14,
			"componentType":5123,
			"count":24,
			"type":"SCALAR"
		},
		{
			"bufferView":15,
			"componentType":5126,
			"count":500,
			"max":[
				2,
				2,
				2
			],
			"min":[
				-2,
				-2,
				-2
			],
			"type":"VEC3"
		},
		{
			"bufferView":16,
			"componentType":5126,
			"count":500,
			"type":"VEC3"
		},
		{
			"bufferView":17,
			"componentType":5126,
			"count":500,
			"type":"VEC2"
		},
		{
			"bufferView":18,
			"componentType":5123,
			"count":768,
			"type":"SCALAR"
		},
		{
			"bufferView":19,
			"componentType":5126,
			"count":30,
			"max":[
				8,
				8,
				2
			],
			"min":[
				2,
				-2,
				-2
			],
			"type":"VEC3"
		},
		{
			"bufferView":20,
			"componentType":5126,
			"count":30,
			"type":"VEC3"
		},
		{
			"bufferView":21,
			"componentType":5126,
			"count":30,
			"type":"VEC2"
		},
		{
			"bufferView":22,
			"componentType":5123,
			"count":54,
			"type":"SCALAR"
		},
		{
			"bufferView":23,
			"componentType":5126,
			"count":544,
			"max":[
				8,
				8,
				2
			],
			"min":[
				-2,
				-2,
				-2
			],
			"type":"VEC3"
		},
		{
			"bufferView":24,
			"componentType":5126,
			"count":544,
			"type":"VEC3"
		},
		{
			"bufferView":25,
			"componentType":5126,
			"count":544,
			"type":"VEC2"
		},
		{
			"bufferView":26,
			"componentType":5123,
			"count":882,
			"type":"SCALAR"
		}
	],
	"bufferViews":[
		{
			"buffer":0,
			"byteLength":576,
			"byteOffset":0,
			"target":34962
		},
		{
			"buffer":0,
			"byteLength":576,
			"byteOffset":576,
			"target":34962
		},
		{
			"buffer":0,
			"byteLength":384,
			"byteOffset":1152,
			"target":34962
		},
		{
			"buffer":0,
			"byteLength":168,
			"byteOffset":1536,
			"target":34963
		},
		{
			"buffer":0,
			"byteLength":96,
			"byteOffset":1704,
			"target":34962
		},
		{
			"buffer":0,
			"byteLength":96,
			"byteOffset":1800,
			"target":34962
		},
		{
			"buffer":0,
			"byteLength":64,
			"byteOffset":1896,
			"target":34962
		},
		{
			"buffer":0,
			"byteLength":24,
			"byteOffset":1960,
			"target":34963
		},
		{
			"buffer":0,
			"byteLength":96,
			"byteOffset":1984,
			"target":34962
		},
		{
			"buffer":0,
			"byteLength":96,
			"byteOffset":2080,
			"target":34962
		},
		{
			"buffer":0,
			"byteLength":64,
			"byteOffset":2176,
			"target":34962
		},
		{
			"buffer":0,
			"byteLength":168,
			"byteOffset":2240,
			"target":34962
		},
		{
			"buffer":0,
			"byteLength":168,
			"byteOffset":2408,
			"target":34962
		},
		{
			"buffer":0,
			"byteLength":112,
			"byteOffset":2576,
			"target":34962
		},
		{
			"buffer":0,
			"byteLength":48,
			"byteOffset":2688,
			"target":34963
		},
		{
			"buffer":0,
			"byteLength":6000,
			"byteOffset":2736,
			"target":34962
		},
		{
			"buffer":0,
			"byteLength":6000,
			"byteOffset":8736,
			"target":34962
		},
		{
			"buffer":0,
			"byteLength":4000,
			"byteOffset":14736,
			"target":34962
		},
		{
			"buffer":0,
			"byteLength":1536,
			"byteOffset":18736,
			"target":34963
		},
		{
			"buffer":0,
			"byteLength":360,
			"byteOffset":20272,
			"target":34962
		},
		{
			"buffer":0,
			"byteLength":360,
			"byteOffset":20632,
			"target":34962
		},
		{
			"buffer":0,
			"byteLength":240,
			"byteOffset":20992,
			"target":34962
		},
		{
			"buffer":0,
			"byteLength":108,
			"byteOffset":21232,
			"target":34963
		},
		{
			"buffer":0,
			"byteLength":6528,
			"byteOffset":21340,
			"target":34962
		},
		{
			"buffer":0,
			"byteLength":6528,
			"byteOffset":27868,
			"target":34962
		},
		{
			"buffer":0,
			"byteLength":4352,
			"byteOffset":34396,
			"target":34962
		},
		{
			"buffer":0,
			"byteLength":1764,
			"byteOffset":38748,
			"target":34963
		}
	],
	"buffers":[
		{
			"byteLength":40512,
			"uri":"compound_collisions.bin"
		}
	]
}
