{
	"asset":{
		"generator":"Khronos glTF Blender I/O v5.1.18",
		"version":"2.0"
	},
	"scene":0,
	"scenes":[
		{
			"extras":{
				"GodotPipelineProps":{
					"mesh_data":0,
					"path_UI":1,
					"path_options":6,
					"set_path":"res://test/fixtures/nav_and_multimesh/nav.tres",
					"script_dropdown":0,
					"global_UI":1,
					"export_UI":1,
					"save_path":"/Users/zheqd/Projects/gamedev/blender-gltf-godot-pipeline/test/fixtures/nav_and_multimesh/scene.gltf",
					"counter":1
				}
			},
			"name":"Scene",
			"nodes":[
				0,
				1,
				2,
				3,
				4
			]
		}
	],
	"nodes":[
		{
			"extras":{
				"nav_mesh":"res://test/fixtures/nav_and_multimesh/nav.tres"
			},
			"mesh":0,
			"name":"Ground"
		},
		{
			"extras":{
				"multimesh":"res://test/fixtures/nav_and_multimesh/tree.tres"
			},
			"mesh":1,
			"name":"Tree1",
			"translation":[
				0,
				1,
				0
			]
		},
		{
			"extras":{
				"multimesh":"res://test/fixtures/nav_and_multimesh/tree.tres"
			},
			"mesh":1,
			"name":"Tree2",
			"translation":[
				-3,
				1,
				0
			]
		},
		{
			"extras":{
				"multimesh":"res://test/fixtures/nav_and_multimesh/tree.tres"
			},
			"mesh":1,
			"name":"Tree3",
			"translation":[
				2.227313756942749,
				1,
				-2
			]
		},
		{
			"extras":{
				"packed_scene":"res://test/fixtures/test_packed.tscn"
			},
			"name":"Spawn",
			"translation":[
				0,
				0,
				-1
			]
		}
	],
	"meshes":[
		{
			"name":"Plane",
			"primitives":[
				{
					"attributes":{
						"POSITION":0,
						"NORMAL":1,
						"TEXCOORD_0":2
					},
					"indices":3
				}
			]
		},
		{
			"name":"Cylinder",
			"primitives":[
				{
					"attributes":{
						"POSITION":4,
						"NORMAL":5,
						"TEXCOORD_0":6
					},
					"indices":7
				}
			]
		}
	],
	"accessors":[
		{
			"bufferView":0,
			"componentType":5126,
			"count":4,
			"max":[
				10,
				0,
				10
			],
			"min":[
				-10,
				0,
				-10
			],
			"type":"VEC3"
		},
		{
			"bufferView":1,
			"componentType":5126,
			"count":4,
			"type":"VEC3"
		},
		{
			"bufferView":2,
			"componentType":5126,
			"count":4,
			"type":"VEC2"
		},
		{
			"bufferView":3,
			"componentType":5123,
			"count":6,
			"type":"SCALAR"
		},
		{
			"bufferView":4,
			"componentType":5126,
			"count":192,
			"max":[
				0.20000000298023224,
				1,
				0.20000000298023224
			],
			"min":[
				-0.20000000298023224,
				-1,
				-0.20000000298023224
			],
			"type":"VEC3"
		},
		{
			"bufferView":5,
			"componentType":5126,
			"count":192,
			"type":"VEC3"
		},
		{
			"bufferView":6,
			"componentType":5126,
			"count":192,
			"type":"VEC2"
		},
		{
			"bufferView":7,
			"componentType":5123,
			"count":372,
			"type":"SCALAR"
		}
	],
	"bufferViews":[
		{
			"buffer":0,
			"byteLength":48,
			"byteOffset":0,
			"target":34962
		},
		{
			"buffer":0,
			"byteLength":48,
			"byteOffset":48,
			"target":34962
		},
		{
			"buffer":0,
			"byteLength":32,
			"byteOffset":96,
			"target":34962
		},
		{
			"buffer":0,
			"byteLength":12,
			"byteOffset":128,
			"target":34963
		},
		{
			"buffer":0,
			"byteLength":2304,
			"byteOffset":140,
			"target":34962
		},
		{
			"buffer":0,
			"byteLength":2304,
			"byteOffset":2444,
			"target":34962
		},
		{
			"buffer":0,
			"byteLength":1536,
			"byteOffset":4748,
			"target":34962
		},
		{
			"buffer":0,
			"byteLength":744,
			"byteOffset":6284,
			"target":34963
		}
	],
	"buffers":[
		{
			"byteLength":7028,
			"uri":"scene.bin"
		}
	]
}
